HIERARCHY
ROOT pelvis
{
  OFFSET 0 100 0
  CHANNELS 6 Xposition Yposition Zposition Zrotation Xrotation Yrotation
  JOINT pelvis_right_femur
  {
    OFFSET -10.78128 -3.44521 -0.5502486
    CHANNELS 3 Zrotation Xrotation Yrotation
    JOINT right_femur_tibia
    {
      OFFSET -0.8047443 -44.0398 -0.1307829
      CHANNELS 3 Zrotation Xrotation Yrotation
      JOINT right_tibia_foot
      {
        OFFSET 3.006224 -47.83518 -5
        CHANNELS 3 Zrotation Xrotation Yrotation
        End Site
        {
          OFFSET 0 -5 15
        }
      }
    }
  }
  JOINT pelvis_left_femur
  {
    OFFSET 10.78128 -3.44521 -0.5502486
    CHANNELS 3 Zrotation Xrotation Yrotation
    JOINT left_femur_tibia
    {
      OFFSET 0.8047443 -44.0398 -0.1307829
      CHANNELS 3 Zrotation Xrotation Yrotation
      JOINT left_tibia_foot
      {
        OFFSET -4.370144 -48.10324 -4.275266
        CHANNELS 3 Zrotation Xrotation Yrotation
        End Site
        {
          OFFSET 0 -5 15
        }
      }
    }
  }
  JOINT pelvis_spine1
  {
    OFFSET 0 6.468898 -3.129235
    CHANNELS 3 Zrotation Xrotation Yrotation
    JOINT spine1
    {
      OFFSET 0 23.15396 4.99043
      CHANNELS 3 Zrotation Xrotation Yrotation
      JOINT spine2
      {
        OFFSET 0 20.79997 -5.064912
        CHANNELS 3 Zrotation Xrotation Yrotation
        JOINT neck
        {
          OFFSET 0 14.38658 9.616178
          CHANNELS 3 Zrotation Xrotation Yrotation
          End Site
          {
            OFFSET 0 20 0
          }
        }
      }
      JOINT right_manubrium
      {
        OFFSET -5.722621 16.35077 3.967754
        CHANNELS 3 Zrotation Xrotation Yrotation
        JOINT right_clavicle
        {
          OFFSET -13.16364 1.694482 -4.693211
          CHANNELS 3 Zrotation Xrotation Yrotation
          JOINT right_humerus
          {
            OFFSET -28.5034 -0.3100689 -2.792744
            CHANNELS 3 Zrotation Xrotation Yrotation
            JOINT right_radius
            {
              OFFSET -25.15693 0.02248979 -1.271978
              CHANNELS 3 Zrotation Xrotation Yrotation
              End Site
              {
                OFFSET -15 0 0
              }
            }
          }
        }
      }
      JOINT left_manubrium
      {
        OFFSET 5.722621 16.35077 3.967754
        CHANNELS 3 Zrotation Xrotation Yrotation
        JOINT left_clavicle
        {
          OFFSET 13.16364 1.694482 -4.693211
          CHANNELS 3 Zrotation Xrotation Yrotation
          JOINT left_humerus
          {
            OFFSET 29.39168 -1.063119 -2.237045
            CHANNELS 3 Zrotation Xrotation Yrotation
            JOINT left_radius
            {
              OFFSET 24.59957 -0.9528479 0.9047498
              CHANNELS 3 Zrotation Xrotation Yrotation
              End Site
              {
                OFFSET 15 -0 -0
              }
            }
          }
        }
      }
    }
  }
}
MOTION
Frames: 16
Frame Time: 0.0416666666667
0 103.5113 0 0.2741809 -0.6413403 0.556475 2.481811 -15.71828 3.808683 1.892384e-10 30.95078 -4.225097e-11 -6.744965 -8.601711 -1.432243 -5.971991 6.110264 -18.05261 -1.258933e-09 -5.149585 1.943457e-09 4.758808 -19.68314 21.78004 -3.050197 -2.33539 3.968727 1.692087 9.262707 -7.284483 0.824306 21.64577 7.489327 3.510801 -23.97769 8.63309 3.807906 -20.97511 11.31066 86.33904 32.27879 -16.75325 -6.856989e-11 7.793158e-11 16.82819 -12.97424 9.376546 8.55014 6.08688 -20.46191 -2.975139 -93.32846 27.34774 23.0124 -8.101298e-12 2.250477e-10 -17.94501 3.84308 15.78675 9.532467
0.6311337 102.6253 3.124288 0.3695909 -0.7113662 1.19001 2.263417 -17.21597 3.836351 4.06343e-10 32.58254 -1.569808e-10 -6.439629 -7.932779 -1.77592 -6.179463 7.851452 -18.30727 -1.295393e-09 -5.34805 1.910168e-09 4.608122 -20.36103 21.73771 -3.200061 -2.261066 3.73966 1.704235 9.146651 -7.408605 0.8551396 21.78558 7.616706 3.579524 -23.90135 8.767538 3.970409 -20.5259 11.23552 86.98317 32.38094 -17.43161 -5.405266e-11 6.262481e-11 16.27278 -12.9022 9.296923 8.372033 6.185889 -20.52049 -3.00148 -93.16878 27.71325 22.15052 -4.309749e-11 1.793507e-10 -18.37559 3.713282 15.62834 9.752834
1.256485 101.7823 6.264133 0.3977183 -0.6802085 1.867427 2.214418 -18.97504 3.8112 5.305826e-10 33.13248 -2.10259e-10 -6.356142 -7.395455 -2.052828 -6.285881 9.645806 -18.50469 -1.218097e-09 -5.10651 1.952577e-09 4.521346 -20.92413 21.59396 -3.269567 -2.229781 3.507702 1.779655 9.082062 -7.592186 0.8664164 21.86172 7.721254 3.640129 -23.92077 8.871616 4.08053 -20.11488 11.19087 87.6392 32.46811 -18.27748 -4.320515e-11 5.236942e-11 15.579 -12.7165 9.258378 8.117841 6.293198 -20.72926 -3.056711 -92.84821 27.94096 21.24335 -5.358138e-11 1.598261e-10 -19.05132 3.794743 15.60189 9.697768
1.855224 100.959 9.388488 0.3401811 -0.528797 2.545653 2.365169 -20.86963 3.734206 5.275808e-10 32.36528 -1.781761e-10 -6.544658 -7.066839 -2.214118 -6.268652 11.32573 -18.62817 -1.018457e-09 -4.428137 2.079957e-09 4.531279 -21.30252 21.35095 -3.24088 -2.254702 3.293507 1.922984 9.080206 -7.826702 0.8525094 21.84964 7.789434 3.685218 -24.05255 8.930133 4.119426 -19.79016 11.18502 88.21792 32.53574 -19.22182 -3.777307e-11 4.92773e-11 14.79552 -12.40661 9.266629 7.798117 6.399013 -21.08783 -3.137361 -92.35874 27.98224 20.37633 -3.395622e-11 1.727479e-10 -19.93814 4.119177 15.73426 9.318775
2.404404 100.1405 12.49282 0.2152648 -0.3233643 3.190125 2.682545 -22.86898 3.631406 4.315928e-10 30.56832 -8.414523e-11 -6.930342 -6.869871 -2.317519 -6.151685 12.93284 -18.66005 -7.17911e-10 -3.157298 2.256193e-09 4.546272 -21.51569 21.00131 -3.125758 -2.31188 3.095741 2.113651 9.137495 -8.102396 0.8267445 21.79055 7.824514 3.718647 -24.25106 8.951095 4.096717 -19.51217 11.21339 88.83045 32.55072 -20.29713 -3.554067e-11 5.080871e-11 13.91016 -12.03607 9.324501 7.427103 6.503969 -21.58066 -3.249321 -91.76922 27.87682 19.50359 9.423598e-12 2.076834e-10 -21.03004 4.615372 15.96481 8.716774
2.890533 99.31178 15.56361 0.033625 -0.06943593 3.769972 3.126079 -24.71787 3.515996 2.58542e-10 27.91208 5.344621e-11 -7.475568 -6.843379 -2.330292 -5.949246 14.2518 -18.60246 -3.577596e-10 -1.56109 2.460531e-09 4.595952 -21.53017 20.5838 -2.939042 -2.400065 2.935625 2.331249 9.236181 -8.380584 0.7884881 21.66345 7.81788 3.7313 -24.48774 8.924442 4.011995 -19.31305 11.26299 89.27895 32.52221 -21.31317 -3.720994e-11 5.748187e-11 13.03448 -11.6197 9.411971 7.041844 6.589971 -22.12687 -3.372225 -91.06414 27.62633 18.72615 7.268983e-11 2.61402e-10 -22.16369 5.238858 16.26365 7.934062
3.301888 98.47396 18.62455 -0.1630641 0.1391833 4.270075 3.626693 -26.43543 3.415024 7.150993e-11 24.94943 1.92466e-10 -8.044591 -6.840172 -2.354307 -5.710007 15.42858 -18.4442 2.523751e-11 0.5127308 2.63904e-09 4.548253 -21.41596 20.09295 -2.710482 -2.479647 2.798799 2.543917 9.361013 -8.649774 0.7580066 21.53362 7.782476 3.732008 -24.68978 8.869664 3.891174 -19.11261 11.31967 89.73266 32.41278 -22.33094 -3.896896e-11 6.458943e-11 12.13297 -11.24495 9.526213 6.657292 6.662465 -22.69548 -3.513058 -90.32772 27.31634 17.93568 1.427076e-10 3.164755e-10 -23.33296 5.868205 16.5361 7.139594
3.642015 97.63958 21.71637 -0.3291255 0.231561 4.688954 4.090657 -27.75597 3.345319 -8.643658e-11 22.25463 3.037203e-10 -8.500588 -6.798082 -2.426068 -5.480685 16.33063 -18.17317 3.694038e-10 2.900951 2.740563e-09 4.338073 -21.18363 19.56889 -2.476108 -2.520362 2.698908 2.706142 9.485531 -8.860131 0.7492405 21.42875 7.718728 3.718192 -24.77695 8.790685 3.75227 -18.89151 11.36133 90.11497 32.20636 -23.19614 -3.908396e-11 6.919663e-11 11.30278 -10.99529 9.648566 6.327035 6.70724 -23.18113 -3.6561 -89.61295 27.01302 17.16392 2.046742e-10 3.587536e-10 -24.36138 6.360436 16.69483 6.508053
3.926445 96.84013 24.92766 -0.4067145 0.08171505 5.03906 4.431208 -28.49284 3.327773 -1.677812e-10 20.48271 3.620913e-10 -8.674696 -6.585094 -2.645619 -5.311908 16.93508 -17.7423 6.298999e-10 5.79894 2.697018e-09 3.797315 -20.8512 19.02236 -2.26513 -2.472697 2.644616 2.766149 9.600315 -8.974397 0.7881892 21.42775 7.630931 3.69512 -24.65088 8.700984 3.615604 -18.59295 11.3759 90.57603 31.84 -23.89025 -3.404278e-11 6.61343e-11 10.57799 -11.01191 9.785407 6.10266 6.719653 -23.52105 -3.805433 -89.06703 26.80857 16.36765 2.411508e-10 3.694635e-10 -25.16512 6.536187 16.63121 6.277068
4.180634 96.1168 28.3504 -0.3758828 -0.3386263 5.337148 4.607773 -28.43257 3.353101 -1.688443e-10 19.78933 3.667081e-10 -8.509043 -6.196505 -3.01324 -5.209945 17.08869 -17.11077 7.940448e-10 9.151842 2.489517e-09 2.89544 -20.36633 18.45478 -2.083679 -2.323008 2.648841 2.698941 9.689848 -8.954878 0.8810794 21.51426 7.50453 3.652935 -24.25236 8.585598 3.475643 -18.20734 11.34407 90.9416 31.29796 -24.26371 -2.374782e-11 5.462493e-11 10.01226 -11.32427 9.924466 6.008836 6.68299 -23.64176 -3.950989 -88.6091 26.71154 15.55296 2.46217e-10 3.449294e-10 -25.62308 6.331424 16.29761 6.508597
4.425872 95.51146 32.07153 -0.257594 -1.004928 5.589463 4.677789 -27.57801 3.409586 -1.212509e-10 19.80805 3.356003e-10 -8.077015 -5.69967 -3.503022 -5.133133 16.72737 -16.25014 9.097459e-10 13.12656 2.134932e-09 1.656402 -19.66083 17.85368 -1.902239 -2.085122 2.722495 2.520744 9.776464 -8.813441 1.022714 21.67141 7.32753 3.588737 -23.61212 8.432544 3.310964 -17.76691 11.28162 91.21971 30.573 -24.34721 -9.678598e-12 3.671695e-11 9.592538 -11.91315 10.08387 6.036033 6.596304 -23.58761 -4.101347 -88.22802 26.67073 14.75295 2.286277e-10 2.937328e-10 -25.79098 5.81558 15.73038 7.116779
4.672903 95.05678 36.16729 -0.1063759 -1.865988 5.770634 4.777581 -25.83242 3.481313 -9.876877e-11 19.70585 3.063977e-10 -7.558835 -5.281895 -4.033329 -4.980306 15.5973 -15.09965 1.063723e-09 18.06673 1.657464e-09 0.1474685 -18.5659 17.21434 -1.652965 -1.794048 2.907973 2.265177 9.920031 -8.57014 1.199531 21.87085 7.072358 3.494925 -22.81475 8.21448 3.069511 -17.38581 11.23432 91.45157 29.647 -24.18119 4.300999e-12 1.791663e-11 9.347706 -12.75518 10.31112 6.185392 6.453275 -23.45776 -4.273271 -87.99441 26.56581 14.13788 2.093139e-10 2.356217e-10 -25.76015 5.134714 15.02698 7.923982
4.91895 94.77604 40.67741 0.02676581 -2.827137 5.838159 4.983153 -23.33025 3.538652 -1.470183e-10 18.8977 3.047943e-10 -7.097064 -5.048093 -4.522609 -4.674573 13.70526 -13.67673 1.328381e-09 23.9016 1.084299e-09 -1.496892 -17.03855 16.53986 -1.305551 -1.48644 3.199713 1.972303 10.13146 -8.252722 1.392193 22.04589 6.730188 3.367691 -21.93072 7.916809 2.72808 -17.10543 11.21201 91.51878 28.55921 -23.78886 1.5434e-11 2.463661e-12 9.240107 -13.74241 10.6041 6.415791 6.255578 -23.30545 -4.46686 -87.77063 26.31356 13.73184 2.032074e-10 1.863653e-10 -25.6063 4.43185 14.27304 8.736926
5.176491 94.66384 45.59467 0.1270384 -3.80607 5.753796 5.259589 -19.77143 3.575324 -2.809626e-10 17.54513 3.308126e-10 -6.754844 -5.191987 -4.838921 -4.180397 10.69482 -12.11417 1.655153e-09 29.80043 4.460209e-10 -3.041801 -15.13436 16.04491 -0.8982996 -1.201865 3.647547 1.643271 10.41637 -7.841338 1.577429 22.20545 6.32537 3.216724 -21.08455 7.566385 2.309069 -17.12622 11.2482 91.421 27.43562 -23.01289 1.975154e-11 -4.90306e-12 9.564658 -14.87215 10.94858 6.820113 6.002381 -23.09468 -4.640682 -87.90668 25.93631 13.96848 2.104763e-10 1.54483e-10 -25.12081 3.730455 13.57324 9.545687
5.449387 94.69529 50.84683 0.1665195 -4.656 5.497058 5.569258 -15.633 3.566788 -4.833074e-10 15.73713 3.777874e-10 -6.580776 -5.685846 -4.923626 -3.519661 6.976695 -10.58618 2.004188e-09 34.92523 -1.743401e-10 -4.276999 -13.08931 15.75798 -0.4813215 -0.9778293 4.181669 1.321883 10.71794 -7.380881 1.727605 22.28129 5.900657 3.053021 -20.3577 7.193182 1.858803 -17.41323 11.31329 90.9925 26.41737 -21.9015 1.648648e-11 -2.925844e-12 10.24575 -15.95255 11.27612 7.321776 5.719151 -22.81979 -4.765374 -88.17868 25.45717 14.73681 2.311909e-10 1.456941e-10 -24.34071 3.130556 13.00645 10.20789
5.743964 94.81472 56.30859 0.1444313 -5.25741 5.078022 5.837211 -11.32427 3.518429 -7.173405e-10 13.91367 4.296429e-10 -6.567536 -6.487887 -4.74201 -2.788002 2.92924 -9.307601 2.242117e-09 38.30545 -6.489963e-10 -5.016262 -11.20184 15.73963 -0.1300986 -0.8456163 4.743492 1.038325 10.98215 -6.911104 1.819074 22.25986 5.517193 2.895264 -19.84481 6.849266 1.447247 -17.9597 11.38998 90.21333 25.65485 -20.50538 5.410412e-12 8.254538e-12 11.28277 -16.84796 11.52603 7.881349 5.437611 -22.46614 -4.806137 -88.58374 24.95533 16.01799 2.57852e-10 1.596464e-10 -23.2573 2.674162 12.64483 10.6772
